<svg width="203" height="32" viewBox="0 0 203 32" fill="none" xmlns="http://www.w3.org/2000/svg">
<path d="M109.921 26.0268C108.078 26.0268 106.491 25.5427 105.158 24.5766C103.825 23.592 102.992 22.3128 102.659 20.7392L104.688 19.8873C104.963 21.0616 105.579 22.0184 106.54 22.7574C107.52 23.4965 108.667 23.8666 109.98 23.8666C111.352 23.8666 112.47 23.4872 113.332 22.7295C114.213 21.952 114.654 20.958 114.654 19.7453C114.654 19.1191 114.528 18.5988 114.273 18.181C114.018 17.7457 113.577 17.3383 112.949 16.9589C112.322 16.5806 111.43 16.1639 110.275 15.7088C108.315 14.9313 106.903 14.1259 106.04 13.2926C105.178 12.4406 104.747 11.4455 104.747 10.3083C104.747 9.39931 104.992 8.5741 105.482 7.83502C105.991 7.07732 106.677 6.49071 107.539 6.07287C108.402 5.63757 109.362 5.41992 110.421 5.41992C111.342 5.41992 112.175 5.58054 112.92 5.90294C113.685 6.22534 114.283 6.66996 114.714 7.2391C115.164 7.78847 115.39 8.39486 115.39 9.05829C115.39 9.87302 115.115 10.5353 114.567 11.0474C114.018 11.5595 113.322 11.8144 112.479 11.8144C112.224 11.8144 112.029 11.8051 111.891 11.7865L112.067 9.85323C112.185 9.89164 112.273 9.91026 112.332 9.91026C112.528 9.91026 112.694 9.83461 112.832 9.6833C112.989 9.51221 113.067 9.31318 113.067 9.08622C113.067 8.66954 112.812 8.31921 112.303 8.03405C111.793 7.73143 111.186 7.58013 110.479 7.58013C109.579 7.58013 108.794 7.83502 108.127 8.34714C107.461 8.85926 107.129 9.47496 107.129 10.1943C107.129 10.8391 107.461 11.4455 108.127 12.0134C108.794 12.5628 109.814 13.1133 111.186 13.6627C113.283 14.496 114.792 15.3864 115.714 16.3339C116.634 17.2626 117.095 18.3905 117.095 19.7162C117.095 20.9103 116.782 21.9904 116.155 22.9565C115.527 23.9039 114.665 24.6523 113.567 25.2016C112.49 25.751 111.273 26.0268 109.921 26.0268ZM125.521 8.77313C125.521 8.48913 125.433 8.24239 125.258 8.03405C125.099 7.80709 124.855 7.69303 124.522 7.69303C124.012 7.71281 123.679 7.88274 123.522 8.20514L121.875 7.06801C122.071 6.66995 122.394 6.31962 122.846 6.017C123.316 5.71322 123.914 5.56192 124.64 5.56192C125.659 5.56192 126.453 5.85522 127.021 6.44299C127.609 7.03076 127.912 7.79778 127.932 8.7452V14.2307H137.782V5.95997H140.193V25.4868H137.782V16.3909H127.932V25.4868H125.521V8.77313ZM149.411 5.95997H151.822V25.4868H149.411V5.95997ZM162.799 8.17721C162.289 8.17721 161.938 8.26217 161.741 8.4321C161.526 8.6032 161.398 8.91512 161.36 9.37021L159.154 9.34228C159.154 8.20514 159.516 7.33338 160.241 6.72698C160.83 6.21487 161.692 5.95997 162.83 5.95997H169.532C170.474 5.95997 171.288 6.12059 171.973 6.44299C172.953 6.89808 173.747 7.63716 174.355 8.66023C174.962 9.6833 175.266 10.7913 175.266 11.9855C175.266 12.99 175.031 13.9083 174.561 14.7428C174.089 15.5762 173.433 16.2489 172.59 16.7598C172.355 16.8925 172.051 17.0066 171.679 17.1009C171.306 17.1963 170.944 17.244 170.59 17.244C170.905 17.3569 171.208 17.5944 171.503 17.954L172.472 19.1482L175.501 23.2696C175.658 23.4779 175.844 23.5815 176.06 23.5815C176.354 23.5815 176.559 23.4302 176.678 23.1276L178.529 24.3776C178.255 24.7943 177.882 25.126 177.412 25.3727C176.962 25.6195 176.481 25.7417 175.971 25.7417C175.501 25.7417 175.06 25.6381 174.649 25.4298C174.237 25.2214 173.884 24.927 173.59 24.5487L170.209 20.0001C170.091 19.8488 169.865 19.5555 169.532 19.1191C169.219 18.6652 168.856 18.3521 168.444 18.181C168.053 17.9924 167.533 17.8784 166.887 17.8399V15.6518H169.12C170.277 15.6518 171.189 15.3294 171.856 14.6858C172.523 14.0223 172.854 13.1226 172.854 11.9855C172.854 10.8484 172.532 9.91957 171.885 9.20028C171.257 8.4612 170.444 8.09108 169.444 8.09108H165.211V25.4868H162.799V8.17721ZM185.967 8.17721C185.457 8.17721 185.104 8.26217 184.909 8.4321C184.693 8.6032 184.565 8.91512 184.527 9.37021L182.321 9.34228C182.321 8.20514 182.683 7.33338 183.409 6.72698C183.997 6.21487 184.86 5.95997 185.997 5.95997H199.139V8.12018H188.378V14.0596H195.728V16.2198H188.378V23.3266H199.139V25.4868H185.967V8.17721Z" fill="#0D1557"/>
<path d="M23.7612 30.5654H1.7238C1.02895 30.5654 0.520327 29.9345 0.720519 29.2909C7.64575 7.0056 34.0757 -22.1735 88.3462 29.6738C88.6814 29.9927 88.4707 30.5654 88.0005 30.5654H80.9589C80.5387 30.5654 80.1221 30.3908 79.8241 30.1056C43.8839 -4.33664 28.3388 15.0191 24.804 29.7588C24.6911 30.2302 24.2616 30.5654 23.7612 30.5654Z" fill="#B4DBFB" fill-opacity="0.79"/>
<path fill-rule="evenodd" clip-rule="evenodd" d="M26.9437 2.33606C13.0116 5.85356 4.79301 18.4562 1.36394 29.4909L1.36389 29.4911C1.33464 29.5851 1.35373 29.6743 1.41428 29.7506C1.47711 29.8298 1.58458 29.8915 1.72367 29.8915H23.761C23.9593 29.8915 24.1104 29.7609 24.1485 29.6018L24.1486 29.6016C25.9393 22.1346 30.8133 13.3094 39.9866 10.8383C49.1658 8.36557 62.278 12.3576 80.2899 29.6188C80.467 29.7882 80.7184 29.8915 80.9588 29.8915H87.5978C60.6637 4.25423 40.8114 -1.16516 26.9437 2.33606ZM87.8816 30.1621C87.8812 30.1618 87.8809 30.1614 87.8806 30.1611L87.8816 30.1621ZM88.8106 29.1856C61.6185 3.20799 41.2114 -2.65628 26.6138 1.02924C12.032 4.71077 3.57306 17.8402 0.0768766 29.0908C-0.274286 30.2198 0.630057 31.2393 1.72367 31.2393H23.761C24.5638 31.2393 25.2716 30.6994 25.4593 29.9158C27.2034 22.6432 31.8693 14.4208 40.3372 12.1397C48.7992 9.86019 61.4296 13.4113 79.3577 30.5922L79.358 30.5925C79.7769 30.9934 80.3588 31.2393 80.9588 31.2393H88.0004C89.1199 31.2393 89.5561 29.8965 88.8116 29.1865" fill="#0D1557"/>
</svg>
